<?xml version="1.0" standalone="no"?>
<!DOCTYPE svg PUBLIC "-//W3C//DTD SVG 20010904//EN"
 "http://www.w3.org/TR/2001/REC-SVG-20010904/DTD/svg10.dtd">
<svg version="1.0" xmlns="http://www.w3.org/2000/svg"
 width="328.000000pt" height="328.000000pt" viewBox="0 0 328.000000 328.000000"
 preserveAspectRatio="xMidYMid meet">
<metadata>
Created by potrace 1.14, written by Peter Selinger 2001-2017
</metadata>
<g transform="translate(0.000000,328.000000) scale(0.100000,-0.100000)"
fill="#000000" stroke="none">
<path d="M491 3254 l-31 -26 0 -1595 c0 -1071 3 -1601 10 -1613 10 -19 37 -20
1167 -20 845 0 1159 3 1169 11 12 10 14 274 14 1614 l0 1603 -31 26 -31 26
-1118 0 -1118 0 -31 -26z m195 -183 c-9 -13 64 -300 80 -316 8 -7 11 -16 7
-18 -15 -8 -73 -6 -73 4 0 5 4 9 10 9 5 0 7 6 5 13 -2 6 -9 31 -15 55 -8 29
-16 42 -28 42 -10 0 -23 5 -29 11 -17 17 -35 -26 -37 -88 l-1 -53 -35 0 c-29
1 -33 3 -19 13 15 12 79 245 79 289 0 14 9 28 23 34 28 15 40 16 33 5z m1594
-245 c0 -3 -4 -8 -10 -11 -5 -3 -10 -1 -10 4 0 6 5 11 10 11 6 0 10 -2 10 -4z
m-1540 -263 c0 -34 -21 -53 -59 -53 -26 0 -28 -25 -3 -39 9 -6 15 -11 12 -11
-3 -1 -17 -3 -32 -5 -30 -4 -47 10 -23 19 8 3 15 14 15 25 0 14 -5 19 -15 15
-27 -11 -64 5 -71 30 -7 29 6 55 53 107 l36 39 43 -47 c33 -36 44 -56 44 -80z
m913 -50 c-1 -48 5 -59 22 -36 7 10 17 14 21 10 12 -12 -11 -42 -30 -39 -11 2
-16 -5 -17 -25 0 -15 -4 -37 -8 -47 -13 -33 -24 1 -27 82 -3 79 9 123 29 103
6 -6 10 -28 10 -48z m-53 -55 c0 -17 -3 -18 -15 -8 -8 7 -15 19 -15 26 0 8 6
11 15 8 8 -4 15 -15 15 -26z m-15 -28 c3 -5 3 -15 0 -20 -7 -12 -45 5 -45 20
0 13 37 13 45 0z m133 -2 c-3 -7 -15 -15 -28 -16 -21 -3 -22 -2 -11 12 16 19
44 21 39 4z m672 2 c0 -5 -5 -10 -11 -10 -5 0 -7 5 -4 10 3 6 8 10 11 10 2 0
4 -4 4 -10z m-779 -67 c23 -21 28 -22 35 -10 25 43 126 72 110 32 -4 -10 1
-15 15 -15 24 0 37 -29 19 -40 -10 -6 -2 -13 28 -25 23 -9 41 -20 39 -23 -1
-4 7 -19 17 -35 10 -15 16 -35 14 -45 -4 -15 1 -18 26 -18 39 0 104 -49 113
-84 7 -29 31 -60 48 -60 30 0 95 -101 95 -147 0 -46 -23 -95 -51 -111 -21 -13
-29 -25 -29 -45 0 -19 4 -26 12 -21 8 5 9 1 4 -12 -4 -12 3 -7 18 11 14 17 25
35 25 40 0 6 -8 -1 -19 -15 -11 -14 -20 -20 -20 -14 0 22 39 60 79 79 33 15
46 16 66 7 36 -17 31 -32 -11 -32 -21 0 -33 -4 -29 -10 3 -6 -11 -26 -31 -45
-39 -37 -50 -53 -83 -120 l-20 -40 47 -5 c115 -13 91 -45 -39 -53 -32 -2 -58
-11 -83 -30 -47 -36 -46 -45 2 -15 29 18 51 23 103 23 54 0 63 2 50 12 -13 10
-9 12 27 13 51 0 78 -12 111 -48 l24 -27 -21 35 c-12 19 -38 44 -60 55 -21 11
-51 30 -66 42 -20 16 -36 21 -55 17 -25 -5 -25 -5 -7 10 29 23 47 20 112 -18
99 -57 115 -75 130 -142 12 -55 12 -56 13 -19 1 71 -32 112 -136 169 -51 28
-93 57 -93 65 0 8 6 11 15 7 10 -3 15 1 15 13 0 53 75 94 130 71 55 -23 61
-87 11 -122 -19 -14 -19 -14 0 -26 16 -10 19 -9 19 4 0 8 5 24 11 36 10 18 13
16 45 -34 35 -53 35 -54 32 -153 -2 -82 -7 -108 -27 -147 -59 -115 -185 -197
-315 -206 -89 -5 -138 8 -206 56 -66 45 -104 105 -126 195 -13 52 -21 67 -33
65 -28 -6 -21 -136 13 -240 l28 -88 44 0 c48 0 52 -6 29 -50 -16 -32 -23 -21
74 -125 37 -40 31 -55 -20 -55 -15 0 -48 -9 -73 -21 -26 -11 -53 -19 -59 -16
-7 3 -37 -24 -67 -58 -43 -49 -57 -60 -63 -49 -18 32 -99 104 -116 104 -10 0
-38 9 -62 20 -24 11 -59 20 -76 20 -18 0 -33 3 -33 6 0 7 55 77 90 114 25 26
25 29 11 59 -18 37 -14 41 38 48 34 5 42 10 47 32 3 14 16 53 27 86 27 76 31
208 6 213 -12 2 -20 -13 -32 -64 -22 -89 -57 -146 -118 -194 -163 -129 -419
-69 -524 121 -28 50 -30 61 -30 160 0 99 2 108 28 145 15 22 27 46 27 53 0 7
5 9 10 6 6 -4 10 7 10 24 0 42 31 71 76 71 19 0 44 -5 55 -10 13 -8 19 -7 19
0 0 6 -6 13 -14 16 -9 3 -12 12 -9 21 5 13 1 15 -24 10 -17 -3 -33 -3 -37 0
-13 13 19 33 54 33 42 0 82 -26 110 -72 16 -26 18 -27 22 -10 7 24 1 32 -33
54 -19 12 -30 32 -39 68 -12 48 -11 54 16 108 22 43 39 63 72 80 30 17 42 30
42 46 0 15 17 39 46 66 36 33 52 41 73 38 25 -4 28 -1 28 24 0 15 7 36 16 46
10 10 17 24 17 30 0 6 18 17 40 23 38 12 39 13 24 30 -15 17 -15 19 10 30 14
7 26 18 26 25 0 32 58 19 101 -23z m1037 -1557 c-29 -21 -23 -46 11 -46 40 0
63 -32 50 -68 -9 -27 -75 -103 -87 -101 -15 1 -92 101 -92 119 0 27 27 50 61
50 35 0 39 22 7 44 -22 16 -21 16 22 16 40 -1 43 -2 28 -14z m-67 -305 c-10
-6 -12 -20 -7 -47 11 -63 17 -76 32 -70 7 3 16 1 19 -4 4 -6 14 -10 24 -10 22
0 47 106 30 127 -9 10 -4 13 27 13 25 0 34 -3 26 -9 -15 -9 -86 -277 -79 -295
3 -7 -9 -20 -25 -29 -20 -11 -28 -13 -25 -5 5 17 -69 307 -84 324 -9 12 -4 14
32 14 29 0 39 -3 30 -9z m-1581 -61 c0 -5 -5 -10 -11 -10 -5 0 -7 5 -4 10 3 6
8 10 11 10 2 0 4 -4 4 -10z"/>
<path d="M641 2961 c-7 -29 -12 -53 -10 -54 2 -1 14 -8 27 -15 27 -15 28 -3 9
72 l-13 48 -13 -51z"/>
<path d="M1665 2339 c-4 -6 -16 -14 -28 -18 -11 -4 -16 -11 -10 -14 5 -4 21 5
33 18 13 14 21 25 17 25 -3 0 -9 -5 -12 -11z"/>
<path d="M1525 2310 c27 -12 35 -12 35 0 0 6 -12 10 -27 9 -25 0 -26 -1 -8 -9z"/>
<path d="M1700 2310 c0 -5 -7 -7 -15 -4 -11 5 -13 2 -9 -10 3 -9 1 -16 -5 -16
-6 0 -11 5 -11 11 0 5 -5 7 -10 4 -8 -5 -8 -11 0 -20 6 -8 7 -16 2 -19 -5 -3
-9 -18 -9 -32 0 -23 2 -21 21 17 14 28 35 50 57 61 34 18 34 18 7 18 -16 0
-28 -4 -28 -10z"/>
<path d="M1570 2295 c0 -8 2 -15 4 -15 2 0 6 7 10 15 3 8 1 15 -4 15 -6 0 -10
-7 -10 -15z"/>
<path d="M1602 2285 c-15 -18 2 -60 20 -49 7 4 6 9 -2 14 -7 4 -9 16 -5 29 7
25 5 26 -13 6z"/>
<path d="M1704 2265 c-10 -8 -14 -14 -9 -14 6 0 19 6 29 14 11 8 15 15 10 15
-6 0 -19 -7 -30 -15z"/>
<path d="M1455 2249 c-11 -17 1 -21 15 -4 8 9 8 15 2 15 -6 0 -14 -5 -17 -11z"/>
<path d="M1725 2243 c-29 -7 -56 -45 -43 -60 6 -7 15 -13 20 -13 6 0 5 7 -2
15 -10 12 -10 18 0 30 19 23 39 19 33 -7 -7 -26 -4 -24 20 15 18 28 15 30 -28
20z"/>
<path d="M1513 2216 c12 -25 33 -25 23 0 -7 18 8 18 22 1 6 -7 8 -24 5 -38 -6
-21 -5 -23 10 -10 9 7 17 19 17 26 0 20 -35 45 -62 45 -24 0 -25 -2 -15 -24z"/>
<path d="M1421 2207 c-6 -8 -8 -17 -4 -20 12 -13 22 -7 20 13 -2 24 -1 24 -16
7z"/>
<path d="M1826 2205 c-3 -9 0 -15 9 -15 16 0 20 16 6 24 -5 3 -11 -1 -15 -9z"/>
<path d="M1631 2174 c0 -11 3 -14 6 -6 3 7 2 16 -1 19 -3 4 -6 -2 -5 -13z"/>
<path d="M1760 2185 c0 -10 29 -24 34 -17 3 6 -3 12 -14 15 -11 3 -20 4 -20 2z"/>
<path d="M1475 2170 c-3 -5 -2 -10 4 -10 5 0 13 5 16 10 3 6 2 10 -4 10 -5 0
-13 -4 -16 -10z"/>
<path d="M1740 2171 c0 -6 4 -13 10 -16 6 -3 7 1 4 9 -7 18 -14 21 -14 7z"/>
<path d="M1500 2155 c-8 -9 -8 -15 -2 -15 12 0 26 19 19 26 -2 2 -10 -2 -17
-11z"/>
<path d="M1591 2157 c-10 -13 -9 -17 8 -27 22 -11 24 -7 12 23 -6 17 -8 17
-20 4z"/>
<path d="M1645 2130 c-7 -39 -19 -52 -28 -27 -2 6 -7 9 -11 6 -11 -11 6 -40
20 -35 8 3 14 1 14 -4 0 -6 -4 -10 -8 -10 -8 0 -16 -14 -40 -62 -2 -5 4 -8 14
-8 9 0 14 3 11 6 -3 4 -1 16 4 27 9 16 13 17 20 6 14 -23 11 -29 -29 -47 -37
-17 -38 -17 -19 -35 18 -18 19 -18 24 2 7 27 17 27 29 0 l9 -21 20 22 c19 21
19 21 -4 27 -15 4 -19 8 -11 13 9 6 9 13 1 28 -14 27 -14 69 0 78 8 5 8 9 -1
14 -8 5 -8 11 3 21 7 8 12 20 9 27 -8 24 -20 11 -27 -28z"/>
<path d="M1893 2163 c-15 -6 -17 -39 -3 -48 6 -3 10 1 10 10 0 9 9 19 20 22
11 3 17 9 14 14 -6 10 -21 10 -41 2z"/>
<path d="M1324 2148 c-4 -7 -3 -8 5 -4 17 11 41 -12 34 -32 -5 -16 -4 -16 12
0 15 14 16 20 5 32 -15 19 -46 21 -56 4z"/>
<path d="M1831 2145 l-25 -14 27 -7 c26 -6 26 -7 10 -20 -16 -12 -15 -13 15
-14 31 0 32 1 17 16 -9 10 -14 25 -12 35 6 22 1 22 -32 4z"/>
<path d="M1400 2133 c0 -9 -7 -25 -17 -35 -15 -17 -15 -18 10 -18 14 0 29 5
32 10 3 6 1 10 -4 10 -6 0 -11 5 -11 10 0 6 12 10 28 10 l27 1 -25 14 c-33 19
-40 18 -40 -2z"/>
<path d="M1941 2112 c-6 -12 -7 -22 -2 -22 18 0 41 12 41 22 0 5 -4 7 -9 4 -5
-4 -11 0 -13 6 -3 8 -9 4 -17 -10z"/>
<path d="M1300 2105 c-10 -13 -9 -15 8 -15 15 0 20 5 16 15 -4 8 -7 15 -9 15
-1 0 -8 -7 -15 -15z"/>
<path d="M1674 2085 c-17 -26 -12 -60 11 -69 13 -5 13 -3 0 17 -12 20 -13 26
0 50 17 34 11 35 -11 2z"/>
<path d="M1578 2090 c17 -19 15 -40 -5 -62 -18 -20 -4 -25 15 -6 18 18 15 54
-5 69 -15 11 -16 11 -5 -1z"/>
<path d="M1436 2075 c-14 -11 -17 -21 -11 -42 4 -15 8 -45 9 -66 1 -27 5 -37
16 -36 28 2 35 -1 20 -11 -11 -7 -9 -11 14 -19 15 -6 32 -9 37 -5 5 3 9 1 9
-5 0 -5 -9 -12 -19 -16 -20 -6 -20 -6 0 -26 10 -10 19 -25 19 -32 0 -19 -33
-47 -55 -47 -18 0 -18 1 0 20 14 16 16 23 7 32 -9 9 -19 8 -41 -5 -16 -9 -41
-17 -55 -17 -43 0 -90 -25 -124 -66 -30 -37 -44 -72 -22 -59 6 3 10 1 10 -5 0
-6 5 -8 11 -4 8 4 8 9 0 17 -15 15 -14 30 3 24 8 -3 20 8 30 31 17 34 19 35
29 17 7 -11 19 -20 27 -20 8 0 15 -9 15 -19 0 -11 6 -21 13 -24 21 -7 13 -22
-12 -22 -12 0 -35 -11 -50 -25 -16 -14 -39 -33 -52 -42 -18 -12 -24 -24 -24
-54 0 -21 5 -41 10 -44 6 -3 10 4 10 16 0 21 1 22 20 4 17 -16 20 -16 20 -2 0
8 3 23 6 32 6 14 3 14 -20 4 -39 -18 -44 -3 -10 32 38 41 119 79 168 79 79 0
173 -68 163 -118 -2 -12 0 -25 5 -28 4 -3 5 -10 2 -16 -4 -7 -2 -8 5 -4 6 4 8
12 5 18 -5 7 -2 9 8 5 12 -4 17 4 22 32 18 118 204 149 316 54 48 -41 51 -58
11 -50 -25 5 -28 3 -24 -13 5 -20 -14 -90 -25 -91 -41 -4 -65 -9 -71 -15 -3
-4 7 -4 22 0 20 5 27 3 22 -4 -4 -7 6 -5 23 4 21 11 31 25 36 50 8 43 36 70
36 35 0 -17 3 -20 12 -11 24 24 13 71 -23 102 -19 16 -28 29 -21 30 7 0 10 5
7 10 -5 8 -11 7 -21 -1 -8 -7 -14 -7 -14 -1 0 5 -17 13 -37 17 -34 6 -36 8
-20 20 21 15 13 41 -14 48 -10 3 -19 11 -19 17 0 9 8 7 25 -4 32 -21 52 -20
64 2 9 16 11 16 25 -3 8 -11 16 -26 16 -32 0 -7 7 -13 16 -13 13 0 14 -3 5
-14 -8 -10 -9 -16 -1 -21 5 -3 10 -1 10 6 0 8 4 8 15 -1 24 -20 17 4 -13 46
-41 56 -53 64 -115 74 -30 5 -64 14 -75 21 -11 7 -27 9 -37 5 -16 -6 -16 -8
-1 -31 16 -24 15 -25 -2 -25 -21 0 -52 29 -52 49 0 6 11 23 25 37 25 25 25 25
4 22 -12 -2 -24 3 -26 10 -3 7 4 12 15 12 34 0 51 11 45 27 -5 13 -2 15 16 10
20 -5 22 -3 17 19 -4 13 1 40 9 61 15 35 14 38 -4 56 -19 19 -19 19 -14 -25 6
-51 -14 -101 -48 -119 -27 -14 -31 -9 -20 29 9 31 9 31 -14 16 -28 -18 -43
-49 -20 -40 9 3 15 0 15 -9 0 -20 -21 -30 -31 -14 -7 11 -11 10 -23 -6 -9 -11
-16 -15 -16 -10 0 13 -53 14 -62 0 -5 -6 -8 -5 -8 3 0 8 -8 10 -25 6 -15 -4
-25 -2 -25 5 0 6 -9 11 -20 11 -50 0 -96 93 -71 146 12 28 12 28 -13 9z m226
-204 c10 -14 18 -17 28 -10 8 5 23 9 33 9 16 0 16 -3 -4 -42 -12 -24 -26 -46
-31 -49 -10 -7 31 -25 79 -34 37 -7 58 17 41 48 -13 24 -3 33 18 16 12 -9 15
-24 11 -51 -3 -23 -1 -38 7 -41 6 -2 3 -3 -6 -2 -10 2 -23 -4 -29 -11 -7 -8
-18 -13 -26 -10 -9 4 -11 1 -7 -6 5 -8 2 -9 -10 -5 -9 4 -15 3 -12 -2 3 -4
-13 -16 -35 -26 -22 -10 -51 -32 -64 -48 l-23 -30 -34 35 c-19 19 -49 40 -66
47 -18 8 -32 18 -32 23 0 5 -5 6 -10 3 -16 -10 -70 50 -70 77 0 23 16 48 31
48 4 0 6 -15 5 -32 l-1 -33 45 3 c49 4 89 20 73 31 -6 3 -20 25 -31 49 -18 38
-19 42 -3 42 9 0 28 -8 41 -17 14 -9 22 -13 18 -8 -12 13 11 45 32 45 10 0 25
-9 32 -19z m258 -91 c0 -5 -2 -10 -4 -10 -3 0 -8 5 -11 10 -3 6 -1 10 4 10 6
0 11 -4 11 -10z m-560 -4 c0 -3 -4 -8 -10 -11 -5 -3 -10 -1 -10 4 0 6 5 11 10
11 6 0 10 -2 10 -4z m37 -33 c-9 -9 -20 -13 -24 -9 -4 4 -1 11 7 16 25 16 35
11 17 -7z m28 -33 c3 -5 -1 -10 -10 -10 -9 0 -13 5 -10 10 3 6 8 10 10 10 2 0
7 -4 10 -10z"/>
<path d="M1636 1775 c-11 -8 -15 -15 -9 -15 6 0 16 7 23 15 16 19 11 19 -14 0z"/>
<path d="M1600 1740 c-8 -5 -30 -10 -49 -10 l-33 0 23 -19 c22 -18 25 -18 31
-3 4 9 7 12 7 7 1 -6 9 -15 19 -21 15 -10 17 -7 17 22 0 19 0 34 0 34 0 0 -7
-5 -15 -10z"/>
<path d="M1650 1730 c5 -9 4 -23 -2 -33 -9 -16 -8 -17 11 -5 12 7 21 17 22 23
0 5 4 2 8 -8 6 -18 7 -18 23 0 16 18 15 19 -27 29 -38 9 -43 8 -35 -6z"/>
<path d="M1625 1660 c-3 -5 -1 -10 4 -10 6 0 11 5 11 10 0 6 -2 10 -4 10 -3 0
-8 -4 -11 -10z"/>
<path d="M1480 2070 c0 -5 5 -10 10 -10 6 0 10 -9 10 -19 0 -23 15 -35 31 -26
6 5 4 11 -7 19 -9 7 -14 18 -11 23 4 6 0 14 -9 17 -21 8 -24 8 -24 -4z"/>
<path d="M1750 2062 c0 -10 -5 -23 -11 -29 -8 -8 -8 -13 0 -17 6 -4 15 4 21
20 6 15 13 31 16 35 3 5 -2 9 -10 9 -9 0 -16 -8 -16 -18z"/>
<path d="M1255 2060 c-3 -5 -1 -10 4 -10 6 0 11 5 11 10 0 6 -2 10 -4 10 -3 0
-8 -4 -11 -10z"/>
<path d="M1990 2059 c0 -5 5 -7 10 -4 6 3 10 8 10 11 0 2 -4 4 -10 4 -5 0 -10
-5 -10 -11z"/>
<path d="M1365 2040 l-30 -5 25 -18 c24 -16 25 -16 32 4 10 27 10 27 -27 19z"/>
<path d="M1868 2021 l-4 -29 28 21 c26 19 27 22 11 29 -29 11 -30 10 -35 -21z"/>
<path d="M2030 2030 c0 -6 8 -10 19 -10 10 0 30 -15 44 -34 31 -40 30 -88 -3
-118 -12 -11 -19 -23 -16 -26 9 -8 47 30 57 57 13 33 -6 86 -39 109 -35 24
-62 34 -62 22z"/>
<path d="M1210 2020 c-13 -8 -13 -10 2 -10 9 0 20 5 23 10 8 13 -5 13 -25 0z"/>
<path d="M1174 2002 c-23 -16 -44 -58 -44 -90 0 -33 44 -92 58 -77 4 3 -3 14
-14 23 -30 24 -36 70 -15 102 34 49 37 57 15 42z"/>
<path d="M1251 1981 c-44 -12 -94 -111 -57 -111 9 0 16 -4 16 -10 0 -5 7 -7
16 -3 13 5 12 8 -5 25 -25 22 -25 27 -6 52 19 24 68 25 94 2 11 -10 26 -16 33
-13 8 4 7 6 -4 6 -10 1 -18 6 -18 11 0 6 -11 15 -25 22 -13 6 -22 15 -19 19 3
5 4 9 2 8 -2 -1 -14 -4 -27 -8z"/>
<path d="M1960 1962 c-33 -26 -54 -82 -31 -82 6 0 8 6 5 13 -2 7 5 26 17 41
17 22 28 26 57 24 65 -6 71 -73 6 -73 -23 0 -30 5 -32 23 -3 20 0 23 20 20 13
-2 22 -9 21 -16 -2 -6 2 -12 7 -12 19 0 10 39 -10 45 -24 8 -70 -18 -70 -40 0
-30 78 -48 117 -27 20 11 21 16 11 40 -13 31 -53 72 -71 72 -7 0 -28 -13 -47
-28z"/>
<path d="M1510 1972 c0 -24 13 -42 32 -42 11 0 18 5 16 12 -6 16 -48 43 -48
30z"/>
<path d="M1881 1954 c-12 -15 -21 -32 -21 -38 0 -6 9 3 19 20 11 18 25 34 33
37 8 3 9 6 1 6 -6 1 -21 -11 -32 -25z"/>
<path d="M1230 1925 c-10 -12 -10 -19 -2 -27 9 -9 12 -8 12 4 0 25 20 32 38
14 14 -14 14 -17 -3 -36 -19 -21 -19 -21 6 -12 30 11 35 34 14 56 -21 20 -49
21 -65 1z"/>
<path d="M1328 1885 c-5 -25 -4 -25 10 -11 12 11 13 19 5 27 -7 7 -12 3 -15
-16z"/>
<path d="M1404 1854 c-18 -14 -18 -14 6 -3 31 14 36 19 24 19 -6 0 -19 -7 -30
-16z"/>
<path d="M2107 1845 c-34 -30 -100 -34 -137 -8 l-25 17 16 -24 c13 -19 27 -26
62 -28 41 -3 50 0 84 32 43 40 43 49 0 11z"/>
<path d="M1285 1824 c-13 -10 -37 -14 -68 -12 -40 3 -45 1 -30 -10 23 -17 89
-10 110 11 22 22 13 29 -12 11z"/>
<path d="M2017 1747 l27 -43 16 30 c15 31 15 31 -15 37 -17 3 -36 9 -43 13 -6
4 0 -12 15 -37z"/>
<path d="M1225 1766 c-28 -10 -30 -13 -20 -42 l10 -31 27 43 c29 47 29 48 -17
30z"/>
<path d="M2260 1705 c-7 -8 -18 -15 -26 -15 -20 0 -43 -28 -38 -47 4 -16 64
-63 79 -63 16 0 1 22 -20 30 -33 12 -42 37 -22 57 19 19 47 10 54 -17 6 -22
18 -26 29 -8 4 6 3 8 -3 5 -13 -8 -23 14 -23 49 0 27 -12 31 -30 9z"/>
<path d="M971 1663 c-8 -21 -17 -31 -24 -26 -7 4 -5 -1 3 -12 15 -18 15 -18
18 1 5 29 31 45 53 33 28 -15 23 -42 -11 -61 -17 -9 -30 -22 -30 -27 0 -15 69
28 80 49 11 21 3 50 -14 50 -6 0 -23 6 -37 14 -25 13 -26 12 -38 -21z"/>
<path d="M1083 1685 c4 -9 7 -23 7 -31 0 -8 6 -11 17 -7 13 5 15 2 10 -11 -4
-10 -7 -20 -7 -22 0 -2 -4 -4 -9 -4 -12 0 -129 -68 -155 -89 -25 -22 -43 -60
-50 -106 -5 -37 -5 -36 8 9 17 56 45 90 101 118 22 11 52 30 67 41 19 14 35
18 57 14 36 -8 39 1 11 36 -11 14 -20 30 -20 36 0 6 -10 15 -22 22 -18 10 -20
9 -15 -6z"/>
<path d="M1285 1650 c-3 -5 1 -10 10 -10 9 0 13 5 10 10 -3 6 -8 10 -10 10 -2
0 -7 -4 -10 -10z"/>
<path d="M1373 1635 c-27 -19 -28 -58 -1 -44 10 5 18 14 18 19 0 6 9 10 20 10
27 0 25 -5 -10 -43 -32 -34 -37 -51 -19 -63 8 -4 9 1 5 17 -7 23 -7 23 18 -3
14 -16 33 -28 42 -28 16 0 16 1 -1 20 -22 25 -13 50 19 50 50 0 46 -57 -6 -82
l-33 -16 50 5 c48 5 85 25 85 46 0 6 -7 2 -15 -9 -14 -19 -14 -19 -15 2 0 12
-6 27 -14 33 -7 6 -17 26 -21 44 -5 26 -8 29 -14 13 -6 -17 -10 -16 -37 13
-33 35 -41 37 -71 16z"/>
<path d="M1820 1630 c-6 -11 -22 -23 -35 -26 -15 -4 -25 -13 -25 -24 0 -10 -7
-23 -15 -30 -8 -7 -15 -19 -15 -26 0 -8 -4 -14 -10 -14 -5 0 -10 5 -10 12 0 6
-3 8 -7 5 -15 -16 31 -47 70 -47 l40 0 -27 21 c-31 25 -34 54 -5 69 15 9 24 8
35 -1 18 -15 18 -38 -1 -45 -8 -4 -15 -10 -15 -15 0 -16 28 -10 42 9 24 33 39
36 28 6 -9 -24 -9 -25 5 -14 18 15 20 46 3 57 -7 4 -21 18 -31 29 -16 19 -16
22 -3 27 10 4 27 -6 46 -26 28 -30 29 -30 23 -7 -14 56 -71 81 -93 40z"/>
<path d="M1775 1629 c-4 -6 -5 -12 -2 -15 2 -3 7 2 10 11 7 17 1 20 -8 4z"/>
<path d="M930 1590 c0 -13 5 -18 15 -14 8 4 15 10 15 14 0 4 -7 10 -15 14 -10
4 -15 -1 -15 -14z"/>
<path d="M1129 1572 c-23 -2 -45 -12 -59 -28 -13 -13 -29 -24 -35 -24 -18 0
-63 -38 -76 -63 -10 -18 -6 -17 19 7 23 22 44 30 82 34 33 3 50 1 50 -7 0 -6
17 -11 40 -11 22 0 57 -7 77 -15 45 -19 53 -14 16 11 -15 10 -48 19 -73 21
-63 4 -110 14 -110 23 0 11 49 29 87 32 19 2 30 7 25 13 -4 6 -23 9 -43 7z"/>
<path d="M1576 1525 c-6 -45 -4 -52 19 -72 17 -15 25 -32 25 -56 0 -45 -11
-54 -26 -20 -13 28 -13 28 -7 -7 3 -19 8 -37 10 -39 6 -8 43 38 43 53 0 28 46
49 92 43 l42 -6 -32 21 c-29 18 -35 19 -50 6 -22 -20 -62 -41 -62 -33 0 3 14
19 30 34 30 27 31 30 22 77 -6 32 -11 40 -12 24 -1 -14 -2 -30 -1 -37 2 -15
-36 -36 -50 -27 -6 4 -15 0 -20 -7 -7 -10 -8 -6 -5 13 2 15 1 40 -3 55 -7 25
-8 23 -15 -22z m75 -56 c-14 -5 -28 -6 -32 -2 -4 4 6 9 24 10 30 1 31 1 8 -8z"/>
<path d="M2351 1522 c13 -22 25 -39 27 -37 5 5 -27 63 -39 71 -6 3 0 -12 12
-34z"/>
<path d="M1908 1522 c-44 -44 -67 -62 -96 -74 -15 -6 -22 -12 -15 -15 17 -6
130 74 136 97 3 11 4 20 4 20 -1 -1 -14 -13 -29 -28z"/>
<path d="M2080 1540 c-10 -6 -2 -7 25 -3 49 7 58 13 19 13 -16 0 -36 -5 -44
-10z"/>
<path d="M900 1508 c-16 -27 -29 -63 -17 -47 15 19 47 79 43 79 -4 0 -15 -15
-26 -32z"/>
<path d="M1128 1533 c6 -2 18 -2 25 0 6 3 1 5 -13 5 -14 0 -19 -2 -12 -5z"/>
<path d="M1330 1515 c0 -7 20 -24 44 -38 29 -16 43 -20 39 -11 -3 8 -11 14
-18 14 -6 0 -24 11 -39 25 -17 15 -26 19 -26 10z"/>
<path d="M1301 1484 c-1 -11 7 -28 17 -37 27 -25 39 -20 15 6 -11 12 -23 29
-26 37 -4 10 -6 9 -6 -6z"/>
<path d="M1034 1461 c-69 -31 -114 -114 -97 -178 6 -24 8 -20 14 30 5 48 13
65 40 94 19 19 52 44 74 54 22 10 33 19 25 19 -8 0 -33 -9 -56 -19z"/>
<path d="M2231 1457 c59 -40 81 -83 77 -154 -2 -41 0 -59 7 -52 5 5 10 35 10
67 0 66 -26 117 -73 145 -44 25 -61 21 -21 -6z"/>
<path d="M2070 1436 c-46 -28 -55 -37 -53 -60 2 -29 -8 -33 -28 -10 -10 12
-10 22 -2 45 16 41 -5 26 -23 -17 -8 -18 -14 -41 -13 -51 0 -14 3 -12 10 6 l9
23 22 -27 c21 -27 22 -28 30 -6 4 12 22 28 40 36 18 8 28 14 22 15 -7 0 -14 7
-18 15 -9 25 21 17 59 -16 26 -24 35 -27 35 -15 0 9 7 19 15 22 29 12 14 25
-25 22 -48 -2 -62 9 -35 28 19 14 43 14 90 -1 14 -4 13 -2 -5 9 -38 23 -69 19
-130 -18z"/>
<path d="M1064 1446 c-18 -8 -35 -19 -39 -26 -5 -9 -2 -9 11 -1 11 6 37 18 59
25 22 8 31 15 20 15 -11 0 -34 -6 -51 -13z"/>
<path d="M1515 1439 l-30 -19 41 6 c24 4 51 1 65 -5 23 -12 23 -11 4 3 -11 8
-25 20 -32 26 -15 12 -11 13 -48 -11z"/>
<path d="M1157 1418 c-5 -16 -11 -19 -34 -14 -33 7 -65 -7 -39 -17 9 -4 16
-14 16 -23 0 -12 9 -9 35 15 20 17 40 31 45 31 15 0 12 17 -4 23 -8 3 -16 -2
-19 -15z"/>
<path d="M1448 1433 c6 -2 18 -2 25 0 6 3 1 5 -13 5 -14 0 -19 -2 -12 -5z"/>
<path d="M1920 1424 c-19 -7 -50 -13 -68 -13 l-34 -1 31 -26 c17 -14 31 -33
32 -42 0 -11 4 -8 10 8 6 14 24 40 42 58 17 17 29 31 26 31 -2 -1 -20 -7 -39
-15z"/>
<path d="M1317 1413 c11 -10 30 -33 41 -52 18 -30 21 -31 27 -12 3 11 20 29
36 38 l31 18 -59 6 c-32 3 -67 9 -78 13 -19 7 -18 7 2 -11z"/>
<path d="M1279 1393 c5 -17 14 -40 21 -50 11 -17 11 -17 6 0 -3 10 -6 24 -6
31 0 7 -7 21 -15 32 -13 17 -14 17 -6 -13z"/>
<path d="M1188 1390 c-17 -19 -17 -20 0 -20 10 0 23 -5 30 -12 19 -19 40 7 26
30 -16 25 -37 26 -56 2z"/>
<path d="M2210 1393 c0 -6 -2 -18 -5 -25 -3 -8 8 -24 26 -37 l32 -24 -7 29
c-7 30 -46 78 -46 57z"/>
<path d="M1028 1370 c-9 -14 -19 -36 -23 -49 l-7 -23 31 23 c33 25 33 24 22
54 -7 18 -8 18 -23 -5z"/>
<path d="M1454 1368 l-19 -23 23 19 c21 18 27 26 19 26 -2 0 -12 -10 -23 -22z"/>
<path d="M1661 1368 c0 -10 -6 -18 -13 -18 -9 0 -9 -3 0 -12 16 -16 25 -5 19
24 -3 14 -5 16 -6 6z"/>
<path d="M1931 1328 c-1 -36 -6 -51 -23 -63 -22 -16 -22 -17 24 -10 26 3 49 2
52 -3 8 -13 -17 -22 -83 -28 -48 -5 -60 -3 -83 15 -15 12 -33 40 -39 62 -7 21
-14 37 -17 35 -9 -10 20 -74 44 -97 24 -22 34 -24 130 -24 l104 0 -46 40 c-35
31 -48 51 -54 80 l-8 40 -1 -47z"/>
<path d="M1256 1347 c-11 -8 -17 -20 -14 -27 2 -8 10 -3 21 14 20 30 19 32 -7
13z"/>
<path d="M2068 1350 c24 -10 30 -45 10 -53 -7 -2 -10 -8 -6 -11 10 -12 50 33
46 52 -2 12 -14 18 -38 19 -30 2 -32 1 -12 -7z"/>
<path d="M1147 1343 c-13 -12 -7 -33 14 -54 11 -11 24 -17 27 -13 4 3 1 9 -5
11 -21 8 -15 43 10 53 20 8 20 9 -9 9 -17 1 -34 -2 -37 -6z"/>
<path d="M1491 1334 c0 -11 3 -14 6 -6 3 7 2 16 -1 19 -3 4 -6 -2 -5 -13z"/>
<path d="M2154 1343 c3 -6 2 -23 -4 -38 -9 -24 -8 -26 10 -20 28 9 58 -11 63
-42 l4 -28 2 27 c1 20 -10 40 -40 70 -23 24 -39 38 -35 31z"/>
<path d="M1068 1299 c-21 -23 -38 -51 -37 -62 l0 -22 9 22 c10 24 39 43 57 36
7 -3 11 9 10 31 -1 20 -1 36 -1 35 -1 0 -18 -18 -38 -40z"/>
<path d="M1320 1326 c0 -7 -9 -25 -20 -39 -11 -14 -20 -28 -20 -31 0 -3 24 -5
53 -5 28 1 43 3 32 6 -29 7 -43 29 -37 58 2 14 2 25 -2 25 -3 0 -6 -6 -6 -14z"/>
<path d="M1408 1311 c-9 -15 -15 -17 -25 -9 -10 8 -13 6 -13 -10 0 -35 26 -33
43 4 18 37 15 46 -5 15z"/>
<path d="M1845 1299 c18 -35 38 -34 43 2 3 23 3 23 -11 5 -14 -19 -15 -19 -21
2 -4 12 -12 22 -17 22 -5 0 -2 -14 6 -31z"/>
<path d="M1607 1300 c6 -22 5 -24 -10 -11 -15 12 -17 11 -17 -8 0 -19 3 -20
20 -11 11 6 20 8 20 5 0 -10 -25 -50 -52 -83 -16 -18 -28 -38 -27 -45 0 -7 6
-4 12 7 28 44 60 76 76 76 19 0 61 -39 61 -57 0 -6 7 -16 15 -23 25 -21 7 19
-27 58 -15 18 -28 38 -28 45 0 8 -4 7 -10 -3 -5 -8 -12 -11 -16 -7 -4 4 0 15
8 24 8 10 18 27 22 38 6 20 6 20 -9 1 -15 -20 -15 -20 -30 0 -13 18 -14 18 -8
-6z"/>
<path d="M1449 1283 c-6 -16 -12 -35 -13 -43 -2 -8 -14 -18 -27 -21 -21 -6
-21 -7 -3 -8 32 -2 85 53 84 89 -1 8 -7 0 -16 -19 -17 -39 -30 -37 -15 3 6 14
8 26 6 26 -3 0 -10 -12 -16 -27z"/>
<path d="M1797 1290 c3 -11 9 -22 13 -25 5 -3 6 4 3 15 -3 11 -9 22 -13 25 -5
3 -6 -4 -3 -15z"/>
<path d="M2020 1301 c0 -10 27 -41 36 -41 7 0 -15 38 -26 45 -6 3 -10 2 -10
-4z"/>
<path d="M1220 1290 c-8 -6 -11 -10 -6 -10 5 0 3 -8 -5 -17 -7 -10 -2 -8 11 4
25 24 25 39 0 23z"/>
<path d="M1660 1286 c0 -8 5 -18 10 -21 6 -3 10 3 10 14 0 12 -4 21 -10 21 -5
0 -10 -6 -10 -14z"/>
<path d="M2117 1263 c-10 -9 -9 -23 2 -23 5 0 11 7 15 15 5 15 -5 20 -17 8z"/>
<path d="M1130 1239 c0 -5 5 -7 10 -4 6 3 10 8 10 11 0 2 -4 4 -10 4 -5 0 -10
-5 -10 -11z"/>
<path d="M1246 1231 c-17 -18 -15 -19 51 -19 l68 0 -53 10 c-29 5 -50 14 -47
19 10 16 -1 10 -19 -10z"/>
<path d="M2147 1232 c-10 -10 -17 -29 -17 -42 0 -13 -8 -32 -17 -42 -15 -17
-15 -18 0 -13 9 4 21 22 27 41 7 19 20 39 31 44 10 6 19 15 19 20 0 16 -26 11
-43 -8z"/>
<path d="M1080 1232 c0 -14 39 -46 47 -39 3 4 -2 16 -12 27 -19 21 -35 26 -35
12z"/>
<path d="M2085 1220 c-12 -5 -14 -9 -6 -9 11 -1 10 -6 -4 -21 -24 -27 -88 -43
-144 -36 -32 4 -40 3 -26 -3 11 -5 42 -10 69 -10 38 -1 59 6 97 31 60 39 70
72 14 48z"/>
<path d="M1140 1206 c0 -19 27 -28 34 -11 2 7 -2 16 -10 19 -22 8 -24 8 -24
-8z"/>
<path d="M1998 1173 c7 -3 16 -2 19 1 4 3 -2 6 -13 5 -11 0 -14 -3 -6 -6z"/>
<path d="M1190 1165 c0 -12 70 -35 102 -35 18 1 47 7 63 15 l30 15 -35 -7
c-45 -9 -117 -5 -141 8 -10 5 -19 7 -19 4z"/>
<path d="M1656 1152 c-9 -10 -16 -28 -16 -40 0 -22 17 -39 28 -27 3 3 0 10 -7
15 -8 4 -11 15 -7 25 6 15 10 14 31 -11 30 -34 32 -27 6 21 -17 33 -19 34 -35
17z"/>
<path d="M1559 1118 l-21 -43 31 34 c25 28 32 31 37 18 3 -9 -3 -25 -15 -38
-30 -32 -26 -47 4 -19 27 25 32 59 13 78 -19 19 -26 15 -49 -30z"/>
<path d="M1610 1065 c-10 -12 -10 -21 -2 -40 14 -30 28 -32 42 -5 8 14 8 26 0
40 -13 24 -23 25 -40 5z m34 -13 c2 -4 0 -14 -5 -22 -8 -13 -10 -13 -18 0 -10
15 -6 30 9 30 5 0 11 -4 14 -8z"/>
<path d="M1678 1058 c5 -5 16 -8 23 -6 8 3 3 7 -10 11 -17 4 -21 3 -13 -5z"/>
<path d="M1460 1052 c0 -4 8 -12 18 -18 15 -10 18 -8 19 7 1 13 -5 19 -18 19
-10 0 -19 -3 -19 -8z"/>
<path d="M1735 1050 c-3 -5 3 -10 15 -10 14 0 19 -4 14 -12 -5 -9 -2 -9 9 1 9
7 17 17 17 22 0 12 -47 11 -55 -1z"/>
<path d="M1544 1032 c-17 -6 -20 -11 -13 -29 6 -18 16 -23 44 -23 19 0 35 3
35 8 -1 8 -36 53 -42 51 -1 -1 -13 -4 -24 -7z m36 -22 c0 -5 -9 -10 -20 -10
-11 0 -20 5 -20 10 0 6 9 10 20 10 11 0 20 -4 20 -10z"/>
<path d="M1662 1010 c-18 -29 -16 -32 19 -28 19 2 38 12 47 26 14 21 13 22
-19 22 -23 0 -38 -6 -47 -20z m52 -5 c-4 -8 -15 -15 -25 -15 -12 0 -16 5 -13
15 4 8 15 15 25 15 12 0 16 -5 13 -15z"/>
<path d="M1499 1008 c0 -2 -1 -20 -2 -41 -2 -32 0 -35 11 -20 15 20 16 49 2
58 -5 3 -10 5 -11 3z"/>
<path d="M1741 992 c-5 -10 -6 -24 -2 -30 5 -9 11 -5 19 13 14 31 15 35 2 35
-5 0 -14 -8 -19 -18z"/>
<path d="M1450 965 c-11 -14 -6 -55 8 -55 4 0 8 16 9 35 2 39 0 41 -17 20z"/>
<path d="M1790 944 l0 -39 -53 -3 c-44 -2 -57 -7 -81 -34 l-28 -31 -22 28
c-20 25 -23 26 -36 10 -8 -10 -28 -23 -44 -30 l-28 -12 25 -5 c14 -3 25 -2 24
1 -5 16 18 11 44 -8 23 -17 29 -29 29 -59 0 -27 3 -33 10 -22 5 8 10 25 10 37
0 11 14 33 31 48 24 20 29 29 20 38 -20 20 -12 24 38 19 44 -4 50 -2 70 26 25
36 26 45 6 62 -13 11 -15 7 -15 -26z m-150 -128 c0 -3 -4 -8 -10 -11 -5 -3
-10 -1 -10 4 0 6 5 11 10 11 6 0 10 -2 10 -4z"/>
<path d="M1530 949 c-13 -23 -13 -24 16 -33 26 -8 64 29 46 44 -7 6 -10 7 -7
4 7 -10 -15 -34 -31 -34 -8 0 -14 5 -14 10 0 6 7 10 15 10 8 0 15 5 15 10 0
18 -29 10 -40 -11z"/>
<path d="M1650 959 c0 -4 8 -16 18 -28 13 -17 23 -19 45 -13 26 7 27 8 11 30
-11 16 -24 22 -45 20 -16 -1 -29 -5 -29 -9z m66 -21 c4 -5 -4 -8 -17 -6 -12 1
-24 8 -26 15 -5 14 34 6 43 -9z"/>
<path d="M1608 925 c-10 -21 -9 -29 5 -43 16 -15 18 -15 34 1 15 14 15 20 3
42 -17 32 -27 32 -42 0z m35 -9 c3 -8 0 -20 -8 -26 -10 -8 -14 -8 -18 2 -10
29 15 52 26 24z"/>
<path d="M1390 905 c-10 -12 -10 -15 4 -15 9 0 16 7 16 15 0 8 -2 15 -4 15 -2
0 -9 -7 -16 -15z"/>
<path d="M1846 905 c-3 -9 0 -15 9 -15 16 0 20 16 6 24 -5 3 -11 -1 -15 -9z"/>
<path d="M1468 899 c-17 -11 14 -23 52 -20 19 1 39 6 43 11 10 9 -80 18 -95 9z"/>
<path d="M1440 860 c0 -5 7 -7 15 -4 8 4 15 8 15 10 0 2 -7 4 -15 4 -8 0 -15
-4 -15 -10z"/>
<path d="M1798 863 c7 -3 16 -2 19 1 4 3 -2 6 -13 5 -11 0 -14 -3 -6 -6z"/>
<path d="M1710 836 c0 -7 -11 -25 -26 -41 -14 -15 -23 -29 -21 -32 5 -5 67 68
67 79 0 5 -4 8 -10 8 -5 0 -10 -6 -10 -14z"/>
<path d="M1748 833 c7 -3 16 -2 19 1 4 3 -2 6 -13 5 -11 0 -14 -3 -6 -6z"/>
<path d="M2600 350 c0 -20 22 -105 30 -113 4 -5 11 13 15 39 3 25 9 52 11 59
3 6 -1 12 -8 12 -7 0 -21 4 -30 8 -11 4 -18 3 -18 -5z"/>
</g>
</svg>
